<mxfile host="app.diagrams.net" agent="Mozilla/5.0 (X11; Linux x86_64) AppleWebKit/537.36 (KHTML, like Gecko) Chrome/131.0.0.0 Safari/537.36" version="25.0.1">
  <diagram name="Page-1" id="sm9ewuzg_zL1EICqUxbg">
    <mxGraphModel dx="2231" dy="1233" grid="1" gridSize="10" guides="1" tooltips="1" connect="1" arrows="1" fold="1" page="1" pageScale="1" pageWidth="850" pageHeight="1100" math="0" shadow="0">
      <root>
        <mxCell id="0" />
        <mxCell id="1" parent="0" />
        <mxCell id="RmtJippV77MmUFGT40VY-5" style="edgeStyle=orthogonalEdgeStyle;rounded=0;orthogonalLoop=1;jettySize=auto;html=1;entryX=0.5;entryY=0;entryDx=0;entryDy=0;" edge="1" parent="1" source="RmtJippV77MmUFGT40VY-1" target="RmtJippV77MmUFGT40VY-2">
          <mxGeometry relative="1" as="geometry" />
        </mxCell>
        <mxCell id="RmtJippV77MmUFGT40VY-13" style="edgeStyle=orthogonalEdgeStyle;rounded=0;orthogonalLoop=1;jettySize=auto;html=1;exitX=0.25;exitY=1;exitDx=0;exitDy=0;entryX=0.5;entryY=0;entryDx=0;entryDy=0;" edge="1" parent="1" source="RmtJippV77MmUFGT40VY-1" target="RmtJippV77MmUFGT40VY-11">
          <mxGeometry relative="1" as="geometry" />
        </mxCell>
        <mxCell id="RmtJippV77MmUFGT40VY-15" style="edgeStyle=orthogonalEdgeStyle;rounded=0;orthogonalLoop=1;jettySize=auto;html=1;exitX=0.5;exitY=1;exitDx=0;exitDy=0;" edge="1" parent="1" source="RmtJippV77MmUFGT40VY-1" target="RmtJippV77MmUFGT40VY-14">
          <mxGeometry relative="1" as="geometry" />
        </mxCell>
        <mxCell id="RmtJippV77MmUFGT40VY-63" style="edgeStyle=orthogonalEdgeStyle;rounded=0;orthogonalLoop=1;jettySize=auto;html=1;exitX=1;exitY=0.5;exitDx=0;exitDy=0;entryX=0.5;entryY=0;entryDx=0;entryDy=0;" edge="1" parent="1" source="RmtJippV77MmUFGT40VY-1" target="RmtJippV77MmUFGT40VY-62">
          <mxGeometry relative="1" as="geometry" />
        </mxCell>
        <mxCell id="RmtJippV77MmUFGT40VY-1" value="&lt;font style=&quot;font-size: 20px;&quot;&gt;Main Dispatcher&lt;/font&gt;" style="html=1;whiteSpace=wrap;" vertex="1" parent="1">
          <mxGeometry x="35" width="260" height="120" as="geometry" />
        </mxCell>
        <mxCell id="RmtJippV77MmUFGT40VY-57" style="edgeStyle=orthogonalEdgeStyle;rounded=0;orthogonalLoop=1;jettySize=auto;html=1;exitX=0.5;exitY=1;exitDx=0;exitDy=0;entryX=0.5;entryY=0;entryDx=0;entryDy=0;" edge="1" parent="1" source="RmtJippV77MmUFGT40VY-2" target="RmtJippV77MmUFGT40VY-55">
          <mxGeometry relative="1" as="geometry" />
        </mxCell>
        <mxCell id="RmtJippV77MmUFGT40VY-2" value="Router&lt;br&gt;Exam" style="rounded=1;whiteSpace=wrap;html=1;" vertex="1" parent="1">
          <mxGeometry x="294.5" y="170" width="114" height="60" as="geometry" />
        </mxCell>
        <mxCell id="RmtJippV77MmUFGT40VY-25" style="edgeStyle=orthogonalEdgeStyle;rounded=0;orthogonalLoop=1;jettySize=auto;html=1;exitX=0.5;exitY=1;exitDx=0;exitDy=0;entryX=0.5;entryY=0;entryDx=0;entryDy=0;" edge="1" parent="1" source="RmtJippV77MmUFGT40VY-7" target="RmtJippV77MmUFGT40VY-24">
          <mxGeometry relative="1" as="geometry" />
        </mxCell>
        <mxCell id="RmtJippV77MmUFGT40VY-7" value="subject" style="rounded=0;whiteSpace=wrap;html=1;" vertex="1" parent="1">
          <mxGeometry x="312" y="500" width="85" height="50" as="geometry" />
        </mxCell>
        <mxCell id="RmtJippV77MmUFGT40VY-114" style="edgeStyle=orthogonalEdgeStyle;rounded=0;orthogonalLoop=1;jettySize=auto;html=1;exitX=0.5;exitY=1;exitDx=0;exitDy=0;entryX=0.5;entryY=0;entryDx=0;entryDy=0;" edge="1" parent="1" source="RmtJippV77MmUFGT40VY-9" target="RmtJippV77MmUFGT40VY-113">
          <mxGeometry relative="1" as="geometry" />
        </mxCell>
        <mxCell id="RmtJippV77MmUFGT40VY-9" value="difficulty" style="rounded=0;whiteSpace=wrap;html=1;" vertex="1" parent="1">
          <mxGeometry x="301.37" y="810" width="101.25" height="40" as="geometry" />
        </mxCell>
        <mxCell id="RmtJippV77MmUFGT40VY-11" value="info" style="rounded=0;whiteSpace=wrap;html=1;" vertex="1" parent="1">
          <mxGeometry y="180" width="90" height="40" as="geometry" />
        </mxCell>
        <mxCell id="RmtJippV77MmUFGT40VY-17" style="edgeStyle=orthogonalEdgeStyle;rounded=0;orthogonalLoop=1;jettySize=auto;html=1;exitX=0.5;exitY=1;exitDx=0;exitDy=0;entryX=0.5;entryY=0;entryDx=0;entryDy=0;" edge="1" parent="1" source="RmtJippV77MmUFGT40VY-14" target="RmtJippV77MmUFGT40VY-16">
          <mxGeometry relative="1" as="geometry" />
        </mxCell>
        <mxCell id="RmtJippV77MmUFGT40VY-14" value="Router&lt;br&gt;Start" style="rounded=1;whiteSpace=wrap;html=1;" vertex="1" parent="1">
          <mxGeometry x="105" y="180" width="120" height="60" as="geometry" />
        </mxCell>
        <mxCell id="RmtJippV77MmUFGT40VY-22" style="edgeStyle=orthogonalEdgeStyle;rounded=0;orthogonalLoop=1;jettySize=auto;html=1;exitX=0.5;exitY=1;exitDx=0;exitDy=0;entryX=0.5;entryY=0;entryDx=0;entryDy=0;" edge="1" parent="1" source="RmtJippV77MmUFGT40VY-16" target="RmtJippV77MmUFGT40VY-21">
          <mxGeometry relative="1" as="geometry" />
        </mxCell>
        <mxCell id="RmtJippV77MmUFGT40VY-16" value="name" style="rounded=0;whiteSpace=wrap;html=1;" vertex="1" parent="1">
          <mxGeometry x="117.5" y="280" width="95" height="40" as="geometry" />
        </mxCell>
        <mxCell id="RmtJippV77MmUFGT40VY-18" value="education" style="rounded=0;whiteSpace=wrap;html=1;" vertex="1" parent="1">
          <mxGeometry x="125" y="420" width="80" height="40" as="geometry" />
        </mxCell>
        <mxCell id="RmtJippV77MmUFGT40VY-23" style="edgeStyle=orthogonalEdgeStyle;rounded=0;orthogonalLoop=1;jettySize=auto;html=1;exitX=0.5;exitY=1;exitDx=0;exitDy=0;" edge="1" parent="1" source="RmtJippV77MmUFGT40VY-21" target="RmtJippV77MmUFGT40VY-18">
          <mxGeometry relative="1" as="geometry">
            <mxPoint x="107.5" y="390" as="sourcePoint" />
          </mxGeometry>
        </mxCell>
        <mxCell id="RmtJippV77MmUFGT40VY-21" value="age" style="rounded=0;whiteSpace=wrap;html=1;" vertex="1" parent="1">
          <mxGeometry x="131.25" y="350" width="67.5" height="30" as="geometry" />
        </mxCell>
        <mxCell id="RmtJippV77MmUFGT40VY-29" style="edgeStyle=orthogonalEdgeStyle;rounded=0;orthogonalLoop=1;jettySize=auto;html=1;exitX=0.5;exitY=1;exitDx=0;exitDy=0;entryX=0.5;entryY=0;entryDx=0;entryDy=0;" edge="1" parent="1" source="RmtJippV77MmUFGT40VY-24" target="RmtJippV77MmUFGT40VY-27">
          <mxGeometry relative="1" as="geometry" />
        </mxCell>
        <mxCell id="RmtJippV77MmUFGT40VY-24" value="theme" style="rounded=0;whiteSpace=wrap;html=1;" vertex="1" parent="1">
          <mxGeometry x="307.19" y="570" width="95" height="50" as="geometry" />
        </mxCell>
        <mxCell id="RmtJippV77MmUFGT40VY-59" style="edgeStyle=orthogonalEdgeStyle;rounded=0;orthogonalLoop=1;jettySize=auto;html=1;exitX=0.5;exitY=1;exitDx=0;exitDy=0;entryX=0.5;entryY=0;entryDx=0;entryDy=0;" edge="1" parent="1" source="RmtJippV77MmUFGT40VY-27" target="RmtJippV77MmUFGT40VY-58">
          <mxGeometry relative="1" as="geometry" />
        </mxCell>
        <mxCell id="RmtJippV77MmUFGT40VY-27" value="number of questions" style="rounded=0;whiteSpace=wrap;html=1;" vertex="1" parent="1">
          <mxGeometry x="303.88" y="640" width="95.37" height="50" as="geometry" />
        </mxCell>
        <mxCell id="RmtJippV77MmUFGT40VY-33" value="yes" style="edgeStyle=orthogonalEdgeStyle;rounded=0;orthogonalLoop=1;jettySize=auto;html=1;exitX=0.5;exitY=1;exitDx=0;exitDy=0;entryX=0.5;entryY=0;entryDx=0;entryDy=0;" edge="1" parent="1" source="RmtJippV77MmUFGT40VY-31" target="RmtJippV77MmUFGT40VY-7">
          <mxGeometry relative="1" as="geometry" />
        </mxCell>
        <mxCell id="RmtJippV77MmUFGT40VY-35" value="no" style="edgeStyle=orthogonalEdgeStyle;rounded=0;orthogonalLoop=1;jettySize=auto;html=1;exitX=1;exitY=0.5;exitDx=0;exitDy=0;entryX=0;entryY=0.5;entryDx=0;entryDy=0;" edge="1" parent="1" source="RmtJippV77MmUFGT40VY-31" target="RmtJippV77MmUFGT40VY-34">
          <mxGeometry relative="1" as="geometry" />
        </mxCell>
        <mxCell id="RmtJippV77MmUFGT40VY-31" value="create exam?" style="rhombus;whiteSpace=wrap;html=1;" vertex="1" parent="1">
          <mxGeometry x="292" y="380" width="125" height="70" as="geometry" />
        </mxCell>
        <mxCell id="RmtJippV77MmUFGT40VY-37" style="edgeStyle=orthogonalEdgeStyle;rounded=0;orthogonalLoop=1;jettySize=auto;html=1;exitX=0.5;exitY=1;exitDx=0;exitDy=0;entryX=0.5;entryY=0;entryDx=0;entryDy=0;" edge="1" parent="1" source="RmtJippV77MmUFGT40VY-34" target="RmtJippV77MmUFGT40VY-36">
          <mxGeometry relative="1" as="geometry" />
        </mxCell>
        <mxCell id="RmtJippV77MmUFGT40VY-34" value="choose exam" style="rounded=0;whiteSpace=wrap;html=1;" vertex="1" parent="1">
          <mxGeometry x="593" y="385" width="120" height="60" as="geometry" />
        </mxCell>
        <mxCell id="RmtJippV77MmUFGT40VY-53" style="edgeStyle=orthogonalEdgeStyle;rounded=0;orthogonalLoop=1;jettySize=auto;html=1;exitX=0.5;exitY=1;exitDx=0;exitDy=0;" edge="1" parent="1" source="RmtJippV77MmUFGT40VY-36" target="RmtJippV77MmUFGT40VY-52">
          <mxGeometry relative="1" as="geometry" />
        </mxCell>
        <mxCell id="RmtJippV77MmUFGT40VY-36" value="start exam" style="rounded=0;whiteSpace=wrap;html=1;" vertex="1" parent="1">
          <mxGeometry x="593" y="960" width="120" height="60" as="geometry" />
        </mxCell>
        <mxCell id="RmtJippV77MmUFGT40VY-61" style="edgeStyle=orthogonalEdgeStyle;rounded=0;orthogonalLoop=1;jettySize=auto;html=1;exitX=1;exitY=0.5;exitDx=0;exitDy=0;entryX=0;entryY=0.5;entryDx=0;entryDy=0;" edge="1" parent="1" source="RmtJippV77MmUFGT40VY-43" target="RmtJippV77MmUFGT40VY-46">
          <mxGeometry relative="1" as="geometry" />
        </mxCell>
        <mxCell id="RmtJippV77MmUFGT40VY-43" value="name exam" style="rounded=0;whiteSpace=wrap;html=1;" vertex="1" parent="1">
          <mxGeometry x="299" y="965" width="105" height="50" as="geometry" />
        </mxCell>
        <mxCell id="RmtJippV77MmUFGT40VY-49" style="edgeStyle=orthogonalEdgeStyle;rounded=0;orthogonalLoop=1;jettySize=auto;html=1;exitX=1;exitY=0.5;exitDx=0;exitDy=0;entryX=0;entryY=0.5;entryDx=0;entryDy=0;" edge="1" parent="1" source="RmtJippV77MmUFGT40VY-46" target="RmtJippV77MmUFGT40VY-36">
          <mxGeometry relative="1" as="geometry" />
        </mxCell>
        <mxCell id="RmtJippV77MmUFGT40VY-46" value="generating exam" style="ellipse;whiteSpace=wrap;html=1;" vertex="1" parent="1">
          <mxGeometry x="450" y="955" width="100" height="70" as="geometry" />
        </mxCell>
        <mxCell id="RmtJippV77MmUFGT40VY-52" value="results" style="rounded=0;whiteSpace=wrap;html=1;" vertex="1" parent="1">
          <mxGeometry x="593" y="1040" width="120" height="60" as="geometry" />
        </mxCell>
        <mxCell id="RmtJippV77MmUFGT40VY-56" style="edgeStyle=orthogonalEdgeStyle;rounded=0;orthogonalLoop=1;jettySize=auto;html=1;exitX=0.524;exitY=1.009;exitDx=0;exitDy=0;entryX=0.5;entryY=0;entryDx=0;entryDy=0;exitPerimeter=0;" edge="1" parent="1" source="RmtJippV77MmUFGT40VY-55" target="RmtJippV77MmUFGT40VY-31">
          <mxGeometry relative="1" as="geometry" />
        </mxCell>
        <mxCell id="RmtJippV77MmUFGT40VY-55" value="start exam" style="rounded=0;whiteSpace=wrap;html=1;" vertex="1" parent="1">
          <mxGeometry x="292" y="260" width="120" height="60" as="geometry" />
        </mxCell>
        <mxCell id="RmtJippV77MmUFGT40VY-60" style="edgeStyle=orthogonalEdgeStyle;rounded=0;orthogonalLoop=1;jettySize=auto;html=1;exitX=0.5;exitY=1;exitDx=0;exitDy=0;entryX=0.5;entryY=0;entryDx=0;entryDy=0;" edge="1" parent="1" source="RmtJippV77MmUFGT40VY-58" target="RmtJippV77MmUFGT40VY-9">
          <mxGeometry relative="1" as="geometry" />
        </mxCell>
        <mxCell id="RmtJippV77MmUFGT40VY-58" value="question type" style="rounded=0;whiteSpace=wrap;html=1;" vertex="1" parent="1">
          <mxGeometry x="292" y="720" width="120" height="60" as="geometry" />
        </mxCell>
        <mxCell id="RmtJippV77MmUFGT40VY-88" style="edgeStyle=orthogonalEdgeStyle;rounded=0;orthogonalLoop=1;jettySize=auto;html=1;exitX=0.5;exitY=1;exitDx=0;exitDy=0;entryX=0.5;entryY=0;entryDx=0;entryDy=0;" edge="1" parent="1" source="RmtJippV77MmUFGT40VY-62" target="RmtJippV77MmUFGT40VY-65">
          <mxGeometry relative="1" as="geometry" />
        </mxCell>
        <mxCell id="RmtJippV77MmUFGT40VY-62" value="Router&lt;br&gt;Test" style="rounded=1;whiteSpace=wrap;html=1;" vertex="1" parent="1">
          <mxGeometry x="890" y="160" width="114" height="60" as="geometry" />
        </mxCell>
        <mxCell id="RmtJippV77MmUFGT40VY-64" style="edgeStyle=orthogonalEdgeStyle;rounded=0;orthogonalLoop=1;jettySize=auto;html=1;exitX=0.5;exitY=1;exitDx=0;exitDy=0;entryX=0.5;entryY=0;entryDx=0;entryDy=0;" edge="1" parent="1" source="RmtJippV77MmUFGT40VY-65" target="RmtJippV77MmUFGT40VY-69">
          <mxGeometry relative="1" as="geometry" />
        </mxCell>
        <mxCell id="RmtJippV77MmUFGT40VY-65" value="subject" style="rounded=0;whiteSpace=wrap;html=1;" vertex="1" parent="1">
          <mxGeometry x="904.31" y="240" width="85" height="50" as="geometry" />
        </mxCell>
        <mxCell id="RmtJippV77MmUFGT40VY-112" style="edgeStyle=orthogonalEdgeStyle;rounded=0;orthogonalLoop=1;jettySize=auto;html=1;exitX=0.5;exitY=1;exitDx=0;exitDy=0;entryX=0.5;entryY=0;entryDx=0;entryDy=0;" edge="1" parent="1" source="RmtJippV77MmUFGT40VY-69" target="RmtJippV77MmUFGT40VY-109">
          <mxGeometry relative="1" as="geometry" />
        </mxCell>
        <mxCell id="RmtJippV77MmUFGT40VY-69" value="theme" style="rounded=0;whiteSpace=wrap;html=1;" vertex="1" parent="1">
          <mxGeometry x="901.5" y="300" width="95" height="50" as="geometry" />
        </mxCell>
        <mxCell id="RmtJippV77MmUFGT40VY-92" style="edgeStyle=orthogonalEdgeStyle;rounded=0;orthogonalLoop=1;jettySize=auto;html=1;exitX=0.5;exitY=1;exitDx=0;exitDy=0;entryX=0.5;entryY=0;entryDx=0;entryDy=0;" edge="1" parent="1" source="RmtJippV77MmUFGT40VY-78" target="RmtJippV77MmUFGT40VY-91">
          <mxGeometry relative="1" as="geometry" />
        </mxCell>
        <mxCell id="RmtJippV77MmUFGT40VY-78" value="start test" style="rounded=0;whiteSpace=wrap;html=1;" vertex="1" parent="1">
          <mxGeometry x="886.81" y="430" width="120" height="60" as="geometry" />
        </mxCell>
        <mxCell id="RmtJippV77MmUFGT40VY-83" value="end" style="rounded=0;whiteSpace=wrap;html=1;" vertex="1" parent="1">
          <mxGeometry x="1080" y="955" width="120" height="60" as="geometry" />
        </mxCell>
        <mxCell id="RmtJippV77MmUFGT40VY-94" value="yes" style="edgeStyle=orthogonalEdgeStyle;rounded=0;orthogonalLoop=1;jettySize=auto;html=1;exitX=1;exitY=0.5;exitDx=0;exitDy=0;entryX=0;entryY=0.5;entryDx=0;entryDy=0;" edge="1" parent="1" source="RmtJippV77MmUFGT40VY-90" target="RmtJippV77MmUFGT40VY-83">
          <mxGeometry relative="1" as="geometry" />
        </mxCell>
        <mxCell id="RmtJippV77MmUFGT40VY-108" value="no" style="edgeStyle=orthogonalEdgeStyle;rounded=0;orthogonalLoop=1;jettySize=auto;html=1;exitX=0;exitY=0.5;exitDx=0;exitDy=0;entryX=0;entryY=0.5;entryDx=0;entryDy=0;" edge="1" parent="1" source="RmtJippV77MmUFGT40VY-90" target="RmtJippV77MmUFGT40VY-91">
          <mxGeometry relative="1" as="geometry">
            <Array as="points">
              <mxPoint x="820" y="985" />
              <mxPoint x="820" y="540" />
            </Array>
          </mxGeometry>
        </mxCell>
        <mxCell id="RmtJippV77MmUFGT40VY-90" value="end test?" style="rhombus;whiteSpace=wrap;html=1;" vertex="1" parent="1">
          <mxGeometry x="869" y="940" width="140" height="90" as="geometry" />
        </mxCell>
        <mxCell id="RmtJippV77MmUFGT40VY-110" style="edgeStyle=orthogonalEdgeStyle;rounded=0;orthogonalLoop=1;jettySize=auto;html=1;exitX=0.5;exitY=1;exitDx=0;exitDy=0;entryX=0.5;entryY=0;entryDx=0;entryDy=0;" edge="1" parent="1" source="RmtJippV77MmUFGT40VY-91" target="RmtJippV77MmUFGT40VY-95">
          <mxGeometry relative="1" as="geometry" />
        </mxCell>
        <mxCell id="RmtJippV77MmUFGT40VY-91" value="next question" style="rounded=0;whiteSpace=wrap;html=1;" vertex="1" parent="1">
          <mxGeometry x="879" y="510" width="120" height="60" as="geometry" />
        </mxCell>
        <mxCell id="RmtJippV77MmUFGT40VY-98" value="yes" style="edgeStyle=orthogonalEdgeStyle;rounded=0;orthogonalLoop=1;jettySize=auto;html=1;exitX=1;exitY=0.5;exitDx=0;exitDy=0;entryX=0;entryY=0.5;entryDx=0;entryDy=0;" edge="1" parent="1" source="RmtJippV77MmUFGT40VY-95" target="RmtJippV77MmUFGT40VY-97">
          <mxGeometry relative="1" as="geometry" />
        </mxCell>
        <mxCell id="RmtJippV77MmUFGT40VY-100" value="no" style="edgeStyle=orthogonalEdgeStyle;rounded=0;orthogonalLoop=1;jettySize=auto;html=1;exitX=0.5;exitY=1;exitDx=0;exitDy=0;entryX=0.5;entryY=0;entryDx=0;entryDy=0;" edge="1" parent="1" source="RmtJippV77MmUFGT40VY-95" target="RmtJippV77MmUFGT40VY-99">
          <mxGeometry relative="1" as="geometry" />
        </mxCell>
        <mxCell id="RmtJippV77MmUFGT40VY-95" value="show hint?" style="rhombus;whiteSpace=wrap;html=1;" vertex="1" parent="1">
          <mxGeometry x="864" y="600" width="150" height="90" as="geometry" />
        </mxCell>
        <mxCell id="RmtJippV77MmUFGT40VY-101" style="edgeStyle=orthogonalEdgeStyle;rounded=0;orthogonalLoop=1;jettySize=auto;html=1;exitX=0.5;exitY=1;exitDx=0;exitDy=0;entryX=1;entryY=0.5;entryDx=0;entryDy=0;" edge="1" parent="1" source="RmtJippV77MmUFGT40VY-97" target="RmtJippV77MmUFGT40VY-99">
          <mxGeometry relative="1" as="geometry" />
        </mxCell>
        <mxCell id="RmtJippV77MmUFGT40VY-97" value="hint" style="rounded=0;whiteSpace=wrap;html=1;" vertex="1" parent="1">
          <mxGeometry x="1095" y="615" width="120" height="60" as="geometry" />
        </mxCell>
        <mxCell id="RmtJippV77MmUFGT40VY-104" style="edgeStyle=orthogonalEdgeStyle;rounded=0;orthogonalLoop=1;jettySize=auto;html=1;exitX=0.5;exitY=1;exitDx=0;exitDy=0;entryX=0.5;entryY=0;entryDx=0;entryDy=0;" edge="1" parent="1" source="RmtJippV77MmUFGT40VY-99" target="RmtJippV77MmUFGT40VY-103">
          <mxGeometry relative="1" as="geometry" />
        </mxCell>
        <mxCell id="RmtJippV77MmUFGT40VY-99" value="check answer" style="rounded=0;whiteSpace=wrap;html=1;" vertex="1" parent="1">
          <mxGeometry x="879" y="730" width="120" height="60" as="geometry" />
        </mxCell>
        <mxCell id="RmtJippV77MmUFGT40VY-106" value="yes" style="edgeStyle=orthogonalEdgeStyle;rounded=0;orthogonalLoop=1;jettySize=auto;html=1;exitX=1;exitY=0.5;exitDx=0;exitDy=0;" edge="1" parent="1" source="RmtJippV77MmUFGT40VY-103" target="RmtJippV77MmUFGT40VY-105">
          <mxGeometry relative="1" as="geometry" />
        </mxCell>
        <mxCell id="RmtJippV77MmUFGT40VY-107" value="no" style="edgeStyle=orthogonalEdgeStyle;rounded=0;orthogonalLoop=1;jettySize=auto;html=1;exitX=0.5;exitY=1;exitDx=0;exitDy=0;entryX=0.5;entryY=0;entryDx=0;entryDy=0;" edge="1" parent="1" source="RmtJippV77MmUFGT40VY-103" target="RmtJippV77MmUFGT40VY-90">
          <mxGeometry relative="1" as="geometry" />
        </mxCell>
        <mxCell id="RmtJippV77MmUFGT40VY-103" value="explain?" style="rhombus;whiteSpace=wrap;html=1;" vertex="1" parent="1">
          <mxGeometry x="876" y="815" width="126" height="80" as="geometry" />
        </mxCell>
        <mxCell id="RmtJippV77MmUFGT40VY-105" value="explanation" style="rounded=0;whiteSpace=wrap;html=1;" vertex="1" parent="1">
          <mxGeometry x="1080" y="825" width="120" height="60" as="geometry" />
        </mxCell>
        <mxCell id="RmtJippV77MmUFGT40VY-111" style="edgeStyle=orthogonalEdgeStyle;rounded=0;orthogonalLoop=1;jettySize=auto;html=1;exitX=0.5;exitY=1;exitDx=0;exitDy=0;entryX=0.5;entryY=0;entryDx=0;entryDy=0;" edge="1" parent="1" source="RmtJippV77MmUFGT40VY-109" target="RmtJippV77MmUFGT40VY-78">
          <mxGeometry relative="1" as="geometry" />
        </mxCell>
        <mxCell id="RmtJippV77MmUFGT40VY-109" value="question type" style="rounded=0;whiteSpace=wrap;html=1;" vertex="1" parent="1">
          <mxGeometry x="879" y="370" width="140" height="50" as="geometry" />
        </mxCell>
        <mxCell id="RmtJippV77MmUFGT40VY-115" style="edgeStyle=orthogonalEdgeStyle;rounded=0;orthogonalLoop=1;jettySize=auto;html=1;exitX=0.5;exitY=1;exitDx=0;exitDy=0;entryX=0.5;entryY=0;entryDx=0;entryDy=0;" edge="1" parent="1" source="RmtJippV77MmUFGT40VY-113" target="RmtJippV77MmUFGT40VY-43">
          <mxGeometry relative="1" as="geometry" />
        </mxCell>
        <mxCell id="RmtJippV77MmUFGT40VY-113" value="time" style="rounded=0;whiteSpace=wrap;html=1;" vertex="1" parent="1">
          <mxGeometry x="316.5" y="885" width="71" height="40" as="geometry" />
        </mxCell>
      </root>
    </mxGraphModel>
  </diagram>
</mxfile>
